{"title":"2006 - Metallica - Live in Seoul 1080i x.264-DHARMA.mkv","uid":10567617,"size":3864540494,"categoryP":"video","categoryS":"music_videos","magnet":"?xt=urn:btih:207621f387d86b9de9654caba15cb61dd4c3517d&amp;dn=2006+-+Metallica+-+Live+in+Seoul+1080i+x.264-DHARMA.mkv&amp;tr=udp%3A%2F%2Ftracker.openbittorrent.com%3A80&amp;tr=udp%3A%2F%2Fopen.demonii.com%3A1337&amp;tr=udp%3A%2F%2Ftracker.coppersurfer.tk%3A6969&amp;tr=udp%3A%2F%2Fexodus.desync.com%3A6969","seeders":1,"leechers":9,"uploader":"DharmaWorkMan","files":1,"time":1405545161,"description":"Description\nencoded from original 15 gig broadcast capture\n\nFormat : MPEG-4\nFormat profile : Base Media / Version 2\nCodec ID : mp42\nFile size : 3.60 GiB\nDuration : 1h 55mn\nOverall bit rate : 4 451 Kbps\nEncoded date : UTC 2014-07-15 19:35:42\nTagged date : UTC 2014-07-16 09:51:15\nWriting application : HandBrake 0.9.9 2013052900\n\nVideo\nID : 1\nFormat : AVC\nFormat/Info : Advanced Video Codec\nFormat profile : &lt;a class=&quot;__cf_email__&quot; href=&quot;/cdn-cgi/l/email-protection&quot; data-cfemail=&quot;d991b0beb19995edf7e9&quot;&gt;[email&amp;#160;protected]&lt;/a&gt;&lt;script cf-hash='f9e31' type=&quot;text/javascript&quot;&gt;\n/* &lt;![CDATA[ */!function(){try{var t=&quot;currentScript&quot;in document?document.currentScript:function(){for(var t=document.getElementsByTagName(&quot;script&quot;),e=t.length;e--;)if(t[e].getAttribute(&quot;cf-hash&quot;))return t[e]}();if(t&amp;&amp;t.previousSibling){var e,r,n,i,c=t.previousSibling,a=c.getAttribute(&quot;data-cfemail&quot;);if(a){for(e=&quot;&quot;,r=parseInt(a.substr(0,2),16),n=2;a.length-n;n+=2)i=parseInt(a.substr(n,2),16)^r,e+=String.fromCharCode(i);e=document.createTextNode(e),c.parentNode.replaceChild(e,c)}}}catch(u){}}();/* ]]&gt; */&lt;/script&gt;\nFormat settings, CABAC : Yes\nFormat settings, ReFrames : 4 frames\nCodec ID : avc1\nCodec ID/Info : Advanced Video Coding\nDuration : 1h 55mn\nBit rate : 4 000 Kbps\nWidth : 1 900 pixels\nHeight : 1 060 pixels\nDisplay aspect ratio : 16:9\nFrame rate mode : Variable\nFrame rate : 29.970 fps\nMinimum frame rate : 2.219 fps\nMaximum frame rate : 29.970 fps\nColor space : YUV\nChroma subsampling : 4:2:0\nBit depth : 8 bits\nScan type : Progressive\nBits/(Pixel*Frame) : 0.066\nStream size : 3.23 GiB (90%)\nWriting library : x264 core 130 r2273 b3065e6\nColor primaries : BT.709\nTransfer characteristics : BT.709\nMatrix coefficients : BT.709\n\nAudio\nID : 2\nFormat : AC-3\nFormat/Info : Audio Coding 3\nMode extension : CM (complete main)\nFormat settings, Endianness : Big\nCodec ID : ac-3\nDuration : 1h 55mn\nBit rate mode : Constant\nBit rate : 448 Kbps\nChannel(s) : 2 channels\nChannel positions : Front: L R\nSampling rate : 48.0 KHz\nBit depth : 16 bits\nCompression mode : Lossy\nStream size : 371 MiB (10%)\nLanguage : Korean\nEncoded date : UTC 2014-07-15 19:35:42\nTagged date : UTC 2014-07-16 09:51:14\n","torrent":{"xt":"urn:btih:207621f387d86b9de9654caba15cb61dd4c3517d","amp;dn":"2006+-+Metallica+-+Live+in+Seoul+1080i+x.264-DHARMA.mkv","amp;tr":["udp%3A%2F%2Ftracker.openbittorrent.com%3A80","udp%3A%2F%2Fopen.demonii.com%3A1337","udp%3A%2F%2Ftracker.coppersurfer.tk%3A6969","udp%3A%2F%2Fexodus.desync.com%3A6969"],"infoHash":"207621f387d86b9de9654caba15cb61dd4c3517d","infoHashBuffer":{"type":"Buffer","data":[32,118,33,243,135,216,107,157,233,101,76,171,161,92,182,29,212,195,81,125]},"announce":[],"urlList":[]}}